<svg xmlns="http://www.w3.org/2000/svg" xmlns:xlink="http://www.w3.org/1999/xlink" version="1.1" width="1000" height="1000" viewBox="0 0 1000 1000" xml:space="preserve">
<desc>Created with Fabric.js 3.5.0</desc>
<defs>
</defs>
<rect x="0" y="0" width="100%" height="100%" fill="rgba(255,255,255,0)"/>
<g transform="matrix(1.7756 0 0 1.7756 500.0083 500.005)" id="974765">
<path style="stroke: none; stroke-width: 1; stroke-dasharray: none; stroke-linecap: butt; stroke-dashoffset: 0; stroke-linejoin: miter; stroke-miterlimit: 4; is-custom-font: none; font-file-url: none; fill: rgb(255,255,255); fill-rule: evenodd; opacity: 1;" vector-effect="non-scaling-stroke" transform=" translate(-256.0009, -152.99)" d="M 153.12 122.45 h 21.82 v 22.3 h -21.82 v -22.3 z m -15.88 90.06 h 83.32 v 79.05 h 89.77 v -136.6 c 0 -0.38 0.04 -0.74 0.11 -1.1 L 179.48 58.02 L 45.77 153.91 c 0.13 0.47 0.2 0.97 0.2 1.48 v 136.17 h 91.27 v -79.05 z m 187.51 87.74 c 0 3.16 -2.56 5.73 -5.74 5.73 H 37.28 c -3.17 0 -5.74 -2.57 -5.74 -5.73 V 161.36 c -29.41 11.32 -40.3 -24.88 -23.87 -37.82 L 174.57 1.51 c 2.03 -1.86 5.16 -2.05 7.4 -0.3 l 167.26 121.77 c -0.01 0.02 0.62 0.56 0.68 0.63 c 19.8 21.32 -1.07 49.48 -25.16 38.11 v 138.53 z m 20.67 -87.74 h 23.08 v 81.11 h 104.1 V 162.93 c 0 -0.43 0.06 -0.86 0.16 -1.26 l -114.6 -82.19 l -16.82 12.31 l -34.56 -25.16 l 49.24 -35.85 a 4.904 4.904 0 0 1 6.34 0.26 l 89.84 65.68 V 65.21 h 39.1 v 60.1 l 14.13 10.33 c 14.03 10.9 4.85 42.16 -20.46 32.41 v 133.02 c 0 2.71 -2.21 4.91 -4.92 4.91 H 344.79 l 0.63 -5.73 v -87.74 z m -140.75 -60.33 h -21.81 v 22.3 h 21.81 v -22.3 z m -51.55 0 h 21.82 v 22.3 h -21.82 v -22.3 z m 51.55 -29.73 h -21.81 v 22.3 h 21.81 v -22.3 z" stroke-linecap="round"/>
</g>
</svg>