<svg xmlns="http://www.w3.org/2000/svg" xmlns:xlink="http://www.w3.org/1999/xlink" version="1.1" width="1000" height="1000" viewBox="0 0 1000 1000" xml:space="preserve">
<desc>Created with Fabric.js 3.5.0</desc>
<defs>
</defs>
<rect x="0" y="0" width="100%" height="100%" fill="rgba(255,255,255,0)"/>
<g transform="matrix(7.3982 0 0 7.3982 499.9999 499.9999)" id="597143">
<path style="stroke: none; stroke-width: 1; stroke-dasharray: none; stroke-linecap: butt; stroke-dashoffset: 0; stroke-linejoin: miter; stroke-miterlimit: 4; is-custom-font: none; font-file-url: none; fill: rgb(255,255,255); fill-rule: evenodd; opacity: 1;" vector-effect="non-scaling-stroke" transform=" translate(-61.44, -49.92)" d="M 8.79 17.04 h 10.27 v 82.79 H 8.79 C 3.95 99.83 0 95.88 0 91.04 V 25.82 C 0 20.99 3.95 17.04 8.79 17.04 L 8.79 17.04 z M 52.34 0 h 17.49 c 5.44 0 9.89 4.45 9.89 9.89 v 5.28 h -6.3 v -5.3 c 0 -1.91 -1.56 -3.47 -3.47 -3.47 H 52.22 c -1.91 0 -3.47 1.56 -3.47 3.47 v 5.3 h -6.3 V 9.89 C 42.45 4.45 46.9 0 52.34 0 L 52.34 0 z M 24.28 17.04 h 73.15 v 82.79 H 24.28 V 17.04 L 24.28 17.04 z M 102.65 17.04 h 11.44 c 4.83 0 8.79 3.95 8.79 8.79 v 65.22 c 0 4.83 -3.95 8.79 -8.79 8.79 h -11.44 V 17.04 L 102.65 17.04 z" stroke-linecap="round"/>
</g>
</svg>